<?xml version="1.0"?>
<svg xmlns="http://www.w3.org/2000/svg" xmlns:xlink="http://www.w3.org/1999/xlink" version="1.1" id="Capa_1" x="0px" y="0px" viewBox="0 0 60.152 60.152" style="enable-background:new 0 0 60.152 60.152;" xml:space="preserve" width="512px" height="512px" class=""><g><g>
	<path d="M36.509,7.778c-0.391-0.391-1.023-0.391-1.414,0s-0.391,1.023,0,1.414l4.242,4.243c0.195,0.195,0.451,0.293,0.707,0.293   s0.512-0.098,0.707-0.293c0.391-0.391,0.391-1.023,0-1.414L36.509,7.778z" data-original="#000000" class="active-path" data-old_color="#FDFBFB" fill="#FFFFFF"/>
	<path d="M52.803,22.447c-0.391-0.391-1.023-0.391-1.414,0l-1.793,1.793l-1.793-1.793c-0.391-0.391-1.023-0.391-1.414,0   s-0.391,1.023,0,1.414l1.793,1.793l-1.793,1.793c-0.391,0.391-0.391,1.023,0,1.414c0.195,0.195,0.451,0.293,0.707,0.293   s0.512-0.098,0.707-0.293l1.793-1.793l1.793,1.793c0.195,0.195,0.451,0.293,0.707,0.293s0.512-0.098,0.707-0.293   c0.391-0.391,0.391-1.023,0-1.414l-1.793-1.793l1.793-1.793C53.194,23.471,53.194,22.838,52.803,22.447z" data-original="#000000" class="active-path" data-old_color="#FDFBFB" fill="#FFFFFF"/>
	<path d="M57.722,17.678c-1.505-1.506-3.514-2.335-5.656-2.335c-1.092,0-2.148,0.218-3.122,0.628L32.974,0l-0.707,0.707   c-3.899,3.899-3.899,10.243,0,14.142l8.485,8.485l-3.273,3.273l-2.395-5.055l-4.194,2.692l-2.352-5.145L24.331,21.8l-2.352-5.145   l-4.208,2.701l-2.352-5.145l-4.208,2.701l-1.793-3.924c-0.182-0.396-0.583-0.633-1.016-0.629L7.66,12.431L5.047,19.44   c-1.154,3.1,0.428,6.562,3.546,7.724c12.702,4.463,18.402,6.465,21.068,7.262l-3.971,3.971l-7.575-2.333   c-0.367-0.133-0.771-0.068-1.082,0.17c-0.313,0.243-0.48,0.625-0.443,1.025c0.094,0.996-0.091,1.378-0.216,1.448   c-0.275,0.152-1.553,0.363-6.48-3.363l-0.326-0.246c-0.322-0.239-0.714-0.359-1.125-0.354L3.793,34.87   c-1.178-0.17-2.347,0.515-2.749,1.649l-0.802,2.254c-0.414,1.166,0.07,2.448,1.152,3.049l4.191,2.327l14.653,5.016   c0.183,0.808,0.49,1.576,0.91,2.286c-0.064,0.057-0.136,0.109-0.196,0.169c-1.948,1.95-1.948,5.122,0,7.071   c0.975,0.975,2.255,1.462,3.535,1.462c1.281,0,2.562-0.487,3.536-1.462c0.93-0.93,1.436-2.17,1.454-3.457   c1.586-0.288,3.044-1.041,4.203-2.2l24.041-24.042c1.506-1.505,2.335-3.514,2.335-5.657S59.228,19.183,57.722,17.678z    M6.922,20.139l1.602-4.297l1.826,3.999l4.208-2.701l2.352,5.145l4.208-2.701l2.352,5.145l4.208-2.701l2.352,5.145l4.222-2.709   l1.728,3.645l-4.728,4.727c-2.522-0.763-14.171-4.81-21.977-7.552C7.207,24.514,6.152,22.206,6.922,20.139z M33.681,13.435   c-2.88-2.88-3.101-7.427-0.663-10.563l14.098,14.099l-0.706,0.706l-0.001,0.001l-4.242,4.242L33.681,13.435z M2.365,40.072   c-0.224-0.124-0.324-0.389-0.238-0.63l0.802-2.255c0.086-0.243,0.343-0.387,0.594-0.335l0.111,0.023l4.796-0.13l0.258,0.194   c3.139,2.375,6.621,4.65,8.661,3.515c0.72-0.402,1.135-1.124,1.239-2.152l5.503,1.695l-1.723,1.723   c-0.178,0.178-0.347,0.365-0.506,0.558c-1.097,1.323-1.722,2.953-1.809,4.687c0,0.008-0.002,0.017-0.002,0.025L6.478,42.356   L2.365,40.072z M22.367,57.276c-1.169-1.17-1.169-3.073-0.001-4.242c0,0,0.001-0.001,0.002-0.001c0,0,0,0,0,0   c0.176,0.176,0.361,0.343,0.552,0.5c0.122,0.102,0.251,0.193,0.378,0.286c0.066,0.048,0.129,0.1,0.196,0.145   c0.171,0.118,0.348,0.225,0.528,0.329c0.024,0.014,0.046,0.029,0.07,0.042c0.201,0.113,0.406,0.216,0.616,0.311   c0.003,0.001,0.005,0.003,0.008,0.004c0.864,0.391,1.796,0.626,2.765,0.69c-0.044,0.723-0.347,1.411-0.87,1.935   C25.441,58.444,23.538,58.445,22.367,57.276z M56.308,27.577L32.267,51.619c-0.981,0.981-2.249,1.578-3.621,1.717l-0.297,0.016   c-1.484,0.082-2.941-0.389-4.081-1.299c-0.007-0.005-0.014-0.01-0.02-0.015c-0.162-0.131-0.318-0.27-0.466-0.418   c-0.001-0.001-0.002-0.003-0.003-0.004c-0.172-0.172-0.326-0.354-0.472-0.541l-0.012-0.015c-0.569-0.729-0.959-1.572-1.141-2.477   l-0.047-0.318c-0.207-1.402,0.088-2.821,0.798-4.003c0.011-0.018,0.021-0.035,0.032-0.053c0.102-0.166,0.214-0.325,0.333-0.48   c0.024-0.031,0.045-0.063,0.07-0.094c0.138-0.174,0.285-0.342,0.444-0.501l18.385-18.385l0,0l5.658-5.658   c1.128-1.127,2.634-1.748,4.242-1.748c1.608,0,3.114,0.621,4.242,1.749s1.749,2.634,1.749,4.243S57.436,26.449,56.308,27.577z" data-original="#000000" class="active-path" data-old_color="#FDFBFB" fill="#FFFFFF"/>
	<path d="M41.585,36.643L29.439,48.79c-0.744,0.745-2.082,0.746-2.828,0c-0.391-0.391-1.023-0.39-1.414,0   c-0.391,0.391-0.391,1.023,0,1.415c0.749,0.75,1.753,1.163,2.827,1.163s2.079-0.413,2.829-1.164L43,38.057   c0.391-0.391,0.391-1.023,0-1.414S41.976,36.252,41.585,36.643z" data-original="#000000" class="active-path" data-old_color="#FDFBFB" fill="#FFFFFF"/>
	<path d="M14.64,42.258l-4.368-1.735c-0.512-0.205-1.094,0.047-1.299,0.56c-0.203,0.513,0.047,1.095,0.561,1.298l4.368,1.735   c0.121,0.048,0.246,0.071,0.369,0.071c0.397,0,0.773-0.239,0.93-0.631C15.404,43.043,15.154,42.462,14.64,42.258z" data-original="#000000" class="active-path" data-old_color="#FDFBFB" fill="#FFFFFF"/>
</g></g> </svg>
